PathFileType	4	(X/Y/Z)	Patient4_TMGait_0pt7_01_right_23.trc.trc
DataRate	CameraRate	NumFrames	NumMarkers	Units	OrigDataRate	OrigDataStartFrame	OrigNumFrames
85.889570552147	85.889570552147	6	33	mm	85.889570552147	106	       141
Frame#	Time	Sacral			L.Shoulder			Chest			R.Shoulder			Neck			R.ASIS			L.ASIS			R.Thigh.Superior			R.Thigh.Lateral			R.Thigh.Inferior			R.Patella			L.Thigh.Superior			L.Thigh.Lateral			L.Thigh.Inferior			L.Patella			L.Shank.Superior			L.Shank.Lateral			L.Shank.Inferior			R.Shank.Superior			R.Shank.Lateral			R.Shank.Inferior			R.Heel			R.Midfoot.Superior			R.Midfoot.Lateral			R.Toe			L.Heel			L.Midfoot.Lateral			L.Midfoot.Superior			L.Toe			L.Elbow			L.Wrist			R.Elbow			R.Wrist			
		X1	Y1	Z1	X2	Y2	Z2	X3	Y3	Z3	X4	Y4	Z4	X5	Y5	Z5	X6	Y6	Z6	X7	Y7	Z7	X8	Y8	Z8	X9	Y9	Z9	X10	Y10	Z10	X11	Y11	Z11	X12	Y12	Z12	X13	Y13	Z13	X14	Y14	Z14	X15	Y15	Z15	X16	Y16	Z16	X17	Y17	Z17	X18	Y18	Z18	X19	Y19	Z19	X20	Y20	Z20	X21	Y21	Z21	X22	Y22	Z22	X23	Y23	Z23	X24	Y24	Z24	X25	Y25	Z25	X26	Y26	Z26	X27	Y27	Z27	X28	Y28	Z28	X29	Y29	Z29	X30	Y30	Z30	X31	Y31	Z31	X32	Y32	Z32	X33	Y33	Z33	

106	27.122500000000	803.555801752696	1018.215394081022	439.304767194605	1010.183661181940	1440.071262249717	260.694474535353	1109.408038763393	1359.974156786672	420.335629423257	1031.340821750920	1438.814996586571	595.002418093513	1015.839833216870	1497.263625944656	415.055537204039	1028.872748436147	946.816257317961	555.151664479764	1014.552047988248	965.870165785126	281.682198914447	1116.619241191518	792.216537479258	528.831911639741	1087.035512344757	670.024287298275	607.038123305182	1180.919700776736	636.302474733900	530.034562530611	1207.945299520228	524.126931640898	554.027332715870	1044.455910158340	747.399191515206	306.969836710293	938.858015691457	640.949689519958	254.823561193625	1015.217383307293	555.212512520573	314.524605517560	1008.455060491823	487.969543032115	327.407548182381	981.068647435795	418.783098962589	321.536566020032	886.489965895984	306.824155108964	274.351085987671	933.940724647778	195.669453881473	348.991216337419	1135.950225944896	444.471922211019	559.877667754836	1015.852316469993	397.602355257727	617.717985450526	1009.662844797938	287.407680334343	569.060044216431	814.475602331634	218.631247705365	539.368397311600	982.793791017905	158.525756450173	576.934495069356	872.876588203701	153.487324976482	608.644083172220	1049.152120983306	45.339928999758	595.542572559433	800.575968960256	41.245852107618	394.670038899117	877.562638010348	35.904717920992	316.951712505426	960.691901385631	96.439053114628	344.664694698238	1089.626690364200	40.459600192082	322.912079515862	995.292020621982	1110.885934222760	101.245139288755	1214.778104815103	974.534085474923	113.540163387676	948.619039200184	1102.276627464704	718.713018129686	1025.785144015089	851.215897908128	716.312859094182	
107	27.134142857143	803.347817098452	1018.166287668252	439.377898994123	1011.833667590388	1439.690694373061	260.629714653837	1109.956561817454	1359.420687493558	420.815083775599	1031.354478357213	1438.707921351316	594.946351392164	1016.683822060324	1496.968807634519	414.800678524810	1028.306732669307	946.807783988729	555.749704760404	1014.356212908816	965.611053964121	282.227644656460	1117.504235364539	794.819712678223	529.177965265187	1090.247540293523	672.081329602006	607.343767048765	1184.291628400649	639.751450398325	530.118972373184	1213.604337306490	529.039126627064	554.129077911936	1042.039697809792	746.232716236391	307.830825019779	934.631511739479	641.266342231483	254.894942490347	1009.481295915814	554.519413728479	314.689133437270	1001.779090816737	487.572017118856	327.418734573967	974.227440036844	418.678223165230	321.445580454515	879.051906950129	307.166346406455	274.434876204426	926.303044435290	195.748049086285	348.842133998326	1145.234594176968	447.025011466490	560.161200650832	1028.222308684251	394.012112077031	618.667590236698	1027.416858906365	283.614301562652	569.958217282727	835.860737914167	204.767641484744	541.263702152066	1007.141781028831	153.577812234320	578.124894474445	897.895950604704	143.103085283560	610.457217261250	1079.524592976043	44.123416147450	597.083168514068	792.434593327586	41.529684302698	394.560087462691	869.409054063050	35.986303995362	316.972352995777	952.613467378007	96.471117195280	344.561994198955	1081.460023417034	40.373350302409	322.846352615274	1002.521926821757	1111.945788789422	99.256667244750	1227.194779289955	985.179604348365	114.075928589851	943.503749184301	1103.828198806171	719.093035590106	1004.188024540227	847.498827381143	719.195237527523	
108	27.145785714286	803.248770335023	1017.972719946738	439.566232853889	1013.444615610341	1439.160107522586	260.741071686238	1110.569082168287	1358.716227289849	421.411227872166	1031.527646484507	1438.439218526860	595.050165437110	1017.606269864419	1496.514590108224	414.723658709640	1027.837513894956	946.599979052860	556.440884460000	1014.263048474935	965.214927594291	282.843106988043	1118.040267833152	796.741269738892	529.541933349858	1092.724303205757	673.526147587554	607.614149813158	1186.736357773159	642.292235996069	530.138060880532	1218.076375409100	533.282077500068	554.119061328793	1039.790796591100	744.942373805445	308.791715190698	930.511261068320	641.497146700304	255.059534297180	1003.813853292431	553.769738524885	314.994389811656	995.202082917945	487.130528042199	327.547867945045	967.440190230296	418.528013812541	321.486423189621	871.717460241972	307.461541665997	274.607188109224	918.680325555877	195.784692315853	348.821950159173	1153.686611882495	449.100294235768	560.449001822529	1040.537543514932	389.742709048559	619.935769855705	1045.417251627338	279.464278650184	571.151966640807	858.467773788004	190.072191447890	543.814180689094	1032.303123075008	148.559333130573	579.666490269178	924.187675068507	132.376630979889	612.835711356648	1110.838079572777	43.458396807840	598.933575671134	784.307175826739	41.804451715284	394.478221025781	861.249322367751	36.078802433801	317.013974534536	944.533234214550	96.496649326935	344.504461396674	1073.283160321757	40.290822251552	322.789790278046	1009.403114073719	1112.992293045274	97.430611407706	1238.605522792295	995.614218618640	114.813609531720	938.186865489778	1105.501789937956	719.569276643819	983.774253680425	845.448382197845	721.649672210392	
109	27.157428571429	803.270403663873	1017.647317513350	439.865865596227	1015.012078659851	1438.484627210851	261.028002540649	1111.249423956863	1357.867478638776	422.122213535546	1031.863634516225	1438.009884665055	595.316658780632	1018.615715563726	1495.904949998032	414.831869709310	1027.499225413861	946.199273778358	557.218243848023	1014.295425745448	964.695904542961	283.513980883441	1118.223496354132	797.903711805556	529.917289473971	1094.387480633888	674.288729709883	607.868031538675	1188.189449827330	643.823293246757	530.116653177903	1221.292369801821	536.756908971872	553.991000929245	1037.656500010738	743.534685213564	309.819848150979	926.484195065947	641.635021786434	255.313012164111	998.214244377856	552.957182473940	315.427951101747	988.727107704151	486.633978267656	327.782290994423	960.701925502567	418.330270896982	321.651159162116	864.475886622080	307.710595032182	274.855231099640	911.065459059437	195.779692131981	348.923200872454	1161.213409135531	450.678239370195	560.741818305741	1052.744273071314	384.888840969768	621.512981787676	1063.556711043081	275.106463790503	572.600565997408	882.289000077275	174.793030140759	546.928125805260	1058.146012640727	143.721774421379	581.512477330275	951.669626558889	121.579900500566	615.697265461699	1142.876128667935	43.658587219040	601.019564732291	776.188151142566	42.062902457224	394.429813407941	853.081120201179	36.181511002701	317.074805873711	936.447973744293	96.514357452774	344.489640812949	1065.090493185695	40.212255117321	322.742627843442	1015.911675256051	1113.997936060873	95.774665314081	1249.004726231454	1005.728192247737	115.727404399359	932.625036654589	1107.311473129112	720.113349172015	964.735230433314	844.856286062288	723.735315353329	
110	27.169071428571	803.423096085387	1017.200881775737	440.275073625699	1016.538207024516	1437.672282126419	261.485496458992	1112.000014673651	1356.883256070762	422.944405230784	1032.358002982988	1437.422536685542	595.744349843346	1019.715442899743	1495.145772119553	415.126922805490	1027.327818588087	945.613888443900	558.073771255323	1014.469343725160	964.064697014384	284.229708452857	1118.059629159982	798.241316638186	530.315171343521	1095.178515826238	674.318427981086	608.147151491478	1188.606411391729	644.270727717924	530.093483666044	1223.214895851622	539.388585632540	553.754156640215	1035.567133254200	742.027516270473	310.892539036242	922.540711471737	641.677313716753	255.649281746566	992.683837113409	552.079674899443	315.976623508332	982.357137474239	486.074264531022	328.109889287155	954.012326319043	418.083409141671	321.929591902331	857.317448311598	307.917854279333	275.165598923187	903.453680659249	195.734952198706	349.132998385055	1167.736803969304	451.749636106255	561.051570529653	1064.753874824644	379.564097912766	623.373339600312	1081.686557685663	270.691401107678	574.246285788644	907.228192798026	159.203986947128	550.460115258578	1084.468996035806	139.305444657472	583.598314846460	980.163990298564	110.981195831181	618.913782151562	1175.342206529659	44.986049501568	603.255292879688	768.072315530628	42.299533194217	394.419144880972	844.903315405965	36.294144988542	317.152582657234	928.355034322312	96.523747657022	344.514401906917	1056.878307373372	40.137126702741	322.705110378515	1022.017190914990	1114.933486543613	94.302221242695	1258.393973326345	1015.418222104444	116.795296785179	926.828538563311	1109.255497045552	720.712230646636	947.179244742473	845.465985440430	725.558789278785	
111	27.180714285714	803.716408305458	1016.637927171023	440.794221328062	1018.028724285346	1436.732019168006	262.105627498060	1112.820600753048	1355.773066146490	423.873217618075	1032.998172356262	1436.679765826298	596.328683757303	1020.901362080568	1494.243228115327	415.605736047385	1027.358462245486	944.851505915275	558.999050922647	1014.793612652603	963.325615468265	284.985234846298	1117.567744899820	797.707260959615	530.759441429680	1095.075048899403	673.591307472073	608.512909848253	1187.974444032234	643.598110182298	530.114250595525	1223.846287461769	541.131152665515	553.432608288822	1033.452096485272	740.446252548558	311.997007509806	918.680049088744	641.624730031979	256.060979195668	987.231123907489	551.139019900664	316.627506948846	976.100199243722	485.446639625493	328.520599273126	947.380387777095	417.785205800804	322.310632793386	850.238296986672	308.089630773667	275.525475271182	895.844086310844	195.652499816220	349.434956455617	1173.199673870689	452.313329497425	561.399671542396	1076.437420321463	373.893768923530	625.470805444602	1099.607821417389	266.360615236038	576.016243974164	933.070376162204	143.603953614027	554.217447086045	1110.981712221497	135.517112058222	585.841407102647	1009.369525855536	100.831162249246	622.315256734933	1207.838989341754	47.613037229196	605.543915580385	759.955780501306	42.511569104412	394.447661699837	836.716308408000	36.416599389722	317.244478496563	920.252426671001	96.524747018412	344.575583772765	1048.645703712456	40.064272788468	322.677191917997	1027.684440014431	1115.766444985594	93.030792740692	1266.781914690578	1024.587523066496	117.999485120542	920.861533428127	1111.311158076047	721.366023963022	931.142138560694	846.994682080825	727.259496266130	
